<svg width="40" height="40" viewBox="0 0 40 40" fill="none" xmlns="http://www.w3.org/2000/svg">
<path d="M20.2715 14.0156C21.1824 14.0151 23.6701 12.5476 25.9434 12.7227C28.3454 12.9009 30.168 13.8266 31.3721 15.5098C29.2184 16.7844 28.1527 18.5146 28.166 20.8105V20.8115C28.1657 20.9343 27.9445 24.6367 32.1201 26.5566C31.3399 28.8586 28.6613 33.9706 25.5459 34.0146C23.7446 34.0145 22.7505 32.8975 20.6494 32.8975C18.5484 32.8976 17.4056 33.9776 15.791 34.0146C12.7025 34.1054 9.7423 28.4817 8.9209 26.1865C8.30704 24.4433 8 22.7494 8 21.1104C8.00012 15.5645 11.7997 12.8382 15.375 12.7842C17.1067 12.7844 19.3087 14.0156 20.2715 14.0156ZM26.0781 6.01562C26.1305 6.67847 26.2883 8.52322 24.5391 10.5498C23.2827 11.9794 21.7569 12.8175 20.0869 12.6934C19.9463 10.9672 20.6046 9.43486 21.7266 8.19629C22.7449 7.04183 24.5322 6.10275 26.0781 6.01562Z" fill="white"/>
</svg>
