<svg width="40" height="40" viewBox="0 0 40 40" fill="none" xmlns="http://www.w3.org/2000/svg">
<path fill-rule="evenodd" clip-rule="evenodd" d="M31.1947 25.8028C29.2386 27.2641 27.3422 28.1495 25.4764 28.7291C25.0144 28.0978 24.6067 27.4236 24.2532 26.7166C24.9234 26.4621 25.5692 26.1483 26.1834 25.7781C26.0243 25.6583 25.866 25.5331 25.7112 25.4053C22.0397 27.14 18.0031 27.14 14.2875 25.4053C14.1331 25.5338 13.9755 25.6583 13.8142 25.7781C14.424 26.1439 15.0691 26.4592 15.7422 26.7144C15.3887 27.4236 14.9777 28.0957 14.5179 28.728C12.6543 28.1473 10.7594 27.262 8.8044 25.8028C8.40466 21.5266 9.2045 17.1874 12.1523 12.7365C13.6147 12.052 15.179 11.554 16.8155 11.2715C17.0175 11.633 17.2571 12.1208 17.4187 12.5082C19.124 12.2472 20.8452 12.2472 22.5825 12.5082C22.7442 12.1208 22.979 11.633 23.1789 11.2715C24.8131 11.554 26.3764 12.0495 27.8377 12.7328C30.3934 16.5456 31.6632 20.8451 31.1947 25.8028ZM18.2775 20.8662C18.2979 19.5978 17.383 18.5577 16.2479 18.5577C15.1128 18.5577 14.2172 19.5989 14.2172 20.8662C14.2172 22.1335 15.1321 23.1725 16.2479 23.1725C17.3637 23.1725 18.2797 22.1324 18.2775 20.8662ZM25.78 20.8662C25.8004 19.5978 24.8856 18.5577 23.7504 18.5577C22.6153 18.5577 21.7197 19.5989 21.7197 20.8662C21.7197 22.1335 22.6346 23.1725 23.7504 23.1725C24.8663 23.1725 25.78 22.1324 25.78 20.8662Z" fill="#5865F2"/>
</svg>
