<svg width="40" height="40" viewBox="0 0 40 40" fill="none" xmlns="http://www.w3.org/2000/svg">
<path d="M18.1292 31.1003C12.8282 30.1649 8.77441 25.5497 8.77441 19.9992C8.77441 13.8251 13.826 8.77344 20.0002 8.77344C26.1744 8.77344 31.226 13.8251 31.226 19.9992C31.226 25.5497 27.1723 30.1649 21.8712 31.1003L21.2475 30.6014H18.7529L18.1292 31.1003Z" fill="#0D89F0"/>
<path d="M24.3658 23.1191L24.8647 20.0009H21.8711V17.818C21.8711 16.9449 22.183 16.2589 23.555 16.2589H24.9894V13.3901C24.1787 13.2654 23.3055 13.1406 22.4948 13.1406C19.9378 13.1406 18.1292 14.6998 18.1292 17.5062V20.0009H15.3228V23.1191H18.1292V31.0396C18.7529 31.1643 19.3765 31.2267 20.0002 31.2267C20.6238 31.2267 21.2475 31.1643 21.8711 31.0396V23.1191H24.3658Z" fill="white"/>
</svg>
