<svg width="40" height="40" viewBox="0 0 40 40" fill="none" xmlns="http://www.w3.org/2000/svg">
<path d="M34.0014 20.3115C34.0014 19.1604 33.906 18.3204 33.6998 17.4492H20.2871V22.6448H28.16C28.0014 23.9359 27.1442 25.8804 25.2394 27.187L25.2127 27.361L29.4535 30.5806L29.7474 30.6092C32.4456 28.1671 34.0014 24.5736 34.0014 20.3115Z" fill="#4285F4"/>
<path d="M20.2863 34.0007C24.1433 34.0007 27.3815 32.7562 29.7465 30.6097L25.2387 27.1873C24.0323 28.0118 22.4132 28.5873 20.2863 28.5873C16.5086 28.5873 13.3023 26.1451 12.1593 22.7695L11.9918 22.7835L7.58208 26.1279L7.52441 26.285C9.87359 30.8585 14.699 34.0007 20.2863 34.0007Z" fill="#34A853"/>
<path d="M12.1601 22.768C11.8585 21.8969 11.684 20.9635 11.684 19.9991C11.684 19.0345 11.8585 18.1013 12.1443 17.2302L12.1363 17.0447L7.67132 13.6465L7.52524 13.7146C6.55702 15.6124 6.00146 17.7436 6.00146 19.9991C6.00146 22.2547 6.55702 24.3857 7.52524 26.2835L12.1601 22.768Z" fill="#FBBC05"/>
<path d="M20.2864 11.4133C22.9689 11.4133 24.7784 12.5488 25.8101 13.4978L29.8419 9.64C27.3657 7.38445 24.1435 6 20.2864 6C14.699 6 9.8736 9.1422 7.52441 13.7155L12.1435 17.2311C13.3023 13.8555 16.5086 11.4133 20.2864 11.4133Z" fill="#EB4335"/>
</svg>
