<svg width="40" height="40" viewBox="0 0 40 40" fill="none" xmlns="http://www.w3.org/2000/svg">
<rect width="40" height="40" rx="8" fill="#25A2E0"/>
<path d="M28.1725 28.7816L31.7692 11.8264C31.9158 11.1087 31.8302 10.5949 31.5123 10.285C31.1944 9.97509 30.7742 9.91782 30.2524 10.1137L9.11236 18.2608C8.63923 18.4401 8.31703 18.644 8.14576 18.8725C7.97449 19.1011 7.95415 19.3168 8.08475 19.5207C8.21534 19.7246 8.47599 19.8836 8.86723 19.9976L14.2745 21.6856L26.8259 13.7826C27.1685 13.5541 27.4296 13.5054 27.6089 13.636C27.7229 13.7173 27.6903 13.8399 27.511 14.0031L17.3574 23.1784L16.9661 28.7569C17.3413 28.7569 17.7085 28.5776 18.0671 28.219L20.7095 25.6746L26.1901 29.7112C27.2338 30.2984 27.8947 29.9885 28.172 28.7816H28.1725Z" fill="white"/>
</svg>
