<svg width="16" height="16" viewBox="0 0 16 16" fill="none" xmlns="http://www.w3.org/2000/svg">
<path d="M4.99512 2.0249C5.52766 1.90864 6.06311 2.21215 6.23633 2.729V2.72998L6.62891 3.91064C7.08369 3.86239 7.54139 3.83927 8 3.84229C8.45843 3.83925 8.91645 3.86241 9.37109 3.91064L9.76465 2.72998C9.93786 2.21292 10.4731 1.90942 11.0059 2.02588V2.0249L11.5322 2.15088C12.0561 2.28804 12.5711 2.45985 13.0732 2.66553H13.0742C13.3714 2.7881 13.5981 3.03818 13.6904 3.34619L15.9561 10.8999C16.0749 11.3033 15.9471 11.7395 15.6289 12.0142C14.5256 12.9729 13.0337 13.7036 11.332 14.1196H11.3291C10.8469 14.2351 10.3486 14.002 10.1279 13.5581V13.5571L9.49609 12.2944C9.00033 12.3522 8.50052 12.3808 8 12.3774C7.4993 12.3808 6.99981 12.3522 6.50391 12.2944L5.87207 13.5581C5.6513 14.0023 5.15342 14.2349 4.6709 14.1196H4.66797C2.96614 13.7036 1.47378 12.9726 0.371094 12.0142C0.0526139 11.7395 -0.0753268 11.3033 0.0439453 10.8999V10.8979L2.31152 3.34619C2.40391 3.03832 2.62967 2.7885 2.92676 2.66553H2.92773C3.59645 2.39155 4.28859 2.17705 4.99512 2.0249ZM5.2207 3.06689C4.57576 3.20551 3.94335 3.40213 3.33301 3.65186V3.65283L1.06738 11.2026V11.2046C1.06738 11.2046 1.06728 11.2061 1.06836 11.2065L1.07031 11.2075C2.02107 12.0345 3.34923 12.6973 4.91699 13.0815L5.40039 12.1128C5.01846 12.0324 4.63907 11.9367 4.26562 11.8198C3.98486 11.7316 3.8291 11.433 3.91699 11.1519C4.00508 10.8711 4.30394 10.7145 4.58496 10.8022C5.12143 10.97 5.66966 11.095 6.22363 11.1802C6.2579 11.1818 6.29139 11.1878 6.32422 11.1958C6.87724 11.2757 7.43663 11.3152 7.99707 11.311H8.00391C9.16041 11.3192 10.3114 11.1475 11.415 10.8022C11.6928 10.7238 11.983 10.8803 12.0693 11.1558C12.1555 11.4311 12.0072 11.7257 11.7344 11.8198C11.3607 11.9368 10.9808 12.0324 10.5986 12.1128L11.083 13.0815C12.6514 12.6973 13.9791 12.0341 14.9297 11.2075L14.9326 11.2065L14.9336 11.2046V11.2026L12.668 3.65283L12.667 3.65186C12.0564 3.40224 11.4252 3.20701 10.7803 3.06885L10.7783 3.06787H10.7773V3.06885L10.4424 4.07275C10.8779 4.15848 11.3097 4.26692 11.7344 4.3999C11.9211 4.45266 12.0642 4.6035 12.1084 4.79248C12.1525 4.98148 12.0902 5.17915 11.9463 5.30908C11.8021 5.43926 11.5988 5.48141 11.415 5.41846V5.41748C10.8491 5.2404 10.2705 5.10984 9.68555 5.0249C9.67933 5.02426 9.67322 5.02284 9.66699 5.02197C9.11712 4.94308 8.56112 4.90476 8.00391 4.90869H7.99707C6.84043 4.90052 5.68895 5.07212 4.58496 5.41748C4.40243 5.47751 4.20155 5.43534 4.05957 5.30615C3.9173 5.17656 3.85567 4.9801 3.89844 4.79248C3.941 4.60503 4.08164 4.45498 4.26562 4.3999C4.69072 4.26685 5.12274 4.1585 5.55859 4.07275L5.22461 3.06787H5.22363L5.2207 3.06689ZM5.86621 8.37646C6.30806 8.37646 6.66699 8.73518 6.66699 9.17725C6.66678 9.61913 6.30793 9.97705 5.86621 9.97705C5.42437 9.97693 5.06662 9.61885 5.06641 9.17725C5.06641 8.73546 5.42446 8.37658 5.86621 8.37646ZM10.1348 8.37646C10.5764 8.37671 10.9346 8.73533 10.9346 9.17725C10.9344 9.61898 10.5765 9.97681 10.1348 9.97705C9.69283 9.97705 9.3342 9.61892 9.33398 9.17725C9.33398 8.73539 9.69291 8.37646 10.1348 8.37646Z" fill="white"/>
</svg>
