<svg width="16" height="17" viewBox="0 0 16 17" fill="none" xmlns="http://www.w3.org/2000/svg">
<path d="M11.5603 1.87451C12.05 1.87461 12.4703 2.0849 12.8904 2.36475C13.1704 2.71453 13.3796 3.13476 13.3796 3.62451V5.93408L13.8699 6.21436C14.4299 6.56439 14.85 7.12464 14.78 7.82471V14.1245C14.78 14.6144 14.6398 15.0342 14.2898 15.3843C13.9398 15.6643 13.52 15.8745 13.03 15.8745H2.94995C2.46019 15.8745 2.04016 15.6648 1.69019 15.3149C1.41008 14.9651 1.19995 14.5441 1.19995 14.0542V7.75439C1.20002 7.12452 1.55033 6.56435 2.11011 6.21436L2.66968 5.93408V3.62451C2.66968 3.20458 2.80993 2.71477 3.15991 2.36475C3.50987 2.0847 3.92973 1.8746 4.41968 1.87451H11.5603ZM8.48022 11.394C8.41011 11.464 8.26969 11.5347 8.12964 11.5347H7.98999C7.84994 11.5347 7.70934 11.464 7.6394 11.394L2.24976 8.31396V14.1245C2.24985 14.5444 2.59996 14.8247 2.94995 14.8247H13.03C13.4498 14.8246 13.7296 14.4744 13.7996 14.1245V8.31396L8.48022 11.394ZM4.41968 2.92432C4.20968 2.92439 4.06924 2.9943 3.92944 3.13428C3.78944 3.27414 3.72046 3.48449 3.72046 3.62451V7.89502L7.98999 10.4146L12.2605 7.89502V3.62451C12.2604 3.20478 11.9102 2.92451 11.5603 2.92432H4.41968ZM13.1697 7.68408L13.7996 7.26416L13.5896 7.12451C13.5896 7.05466 13.5198 7.05476 13.45 6.98486L13.1697 6.84424V7.68408ZM2.53003 6.98486C2.46017 7.05478 2.39038 7.05465 2.39038 7.12451L2.18042 7.19482L2.87964 7.61475V6.77393L2.53003 6.98486ZM10.1599 6.49463C10.37 6.49465 10.5101 6.56495 10.6501 6.7749C10.7899 6.91491 10.79 7.1247 10.6501 7.33447C10.5101 7.54442 10.3698 7.61472 10.1599 7.61475H5.82007C5.53997 7.54463 5.32983 7.3343 5.32983 7.0542C5.33007 6.77426 5.54013 6.49463 5.82007 6.49463H10.1599ZM10.2302 4.53467C10.4402 4.53473 10.5805 4.60506 10.7205 4.81494C10.8601 4.95493 10.8602 5.16482 10.7205 5.37451C10.5805 5.58421 10.44 5.65472 10.2302 5.65479H5.82007C5.54015 5.65479 5.33021 5.37415 5.40015 5.09424C5.40039 4.8143 5.61063 4.53467 5.89038 4.53467H10.2302Z" fill="white"/>
</svg>
