<svg width="17" height="18" viewBox="0 0 17 18" fill="none" xmlns="http://www.w3.org/2000/svg">
<g clip-path="url(#clip0_3872_294528)">
<path d="M12.2002 2C13.9523 2 15.3779 3.42547 15.3779 5.17773V10.5244C15.3779 12.2765 13.9525 13.7021 12.2002 13.7021H10.084L8.18848 15.8906L6.29395 13.7021H4.17773C2.42568 13.7021 1 12.2765 1 10.5244V5.17773C1 3.42568 2.42547 2 4.17773 2H12.2002ZM4.17773 3.00879C2.98163 3.00879 2.00787 3.98165 2.00781 5.17773V10.5264C2.00781 11.7225 2.9816 12.6963 4.17773 12.6963H6.75586L8.18945 14.3516L9.62305 12.6943H12.2002C13.3963 12.6943 14.3701 11.7205 14.3701 10.5244V10.3604H14.3682V5.17773C14.3681 3.98171 13.3952 3.0089 12.1992 3.00879H4.17773ZM8.56641 11.3496H7.5332V10.3486H8.56641V11.3496ZM8.41016 4.83789C9.55754 4.90056 10.194 5.44378 10.3193 6.46582C10.3611 7.13424 9.97568 7.71742 9.16113 8.21875C8.68065 8.5305 8.45079 8.907 8.47168 9.3457V9.5957H7.62598V9.2832C7.60509 8.67737 7.87736 8.18658 8.44141 7.81055C9.02608 7.39443 9.30702 6.97631 9.28613 6.55859C9.22335 5.97552 8.89085 5.66189 8.28516 5.62012C7.55407 5.62012 7.09626 6.03826 6.9082 6.87207L6 6.65332C6.25077 5.381 7.05421 4.77533 8.41016 4.83789Z" fill="white"/>
</g>
<defs>
<clipPath id="clip0_3872_294528">
<rect width="16.4323" height="17.8745" fill="white"/>
</clipPath>
</defs>
</svg>
