<svg width="16" height="16" viewBox="0 0 16 16" fill="none" xmlns="http://www.w3.org/2000/svg">
<path d="M15.1145 1.47564C14.8316 1.18254 14.4453 1.01188 14.0382 1C13.8292 1.00046 13.6224 1.04295 13.4301 1.12474L0.485578 6.73147C0.172367 6.85918 -0.0229622 7.17399 0.0021678 7.51119V8.01813C-0.0149663 8.36972 0.205493 8.68933 0.540179 8.79785L3.90121 9.9207L4.91486 13.3441C5.05376 13.8328 5.44853 14.2067 5.94428 14.3187C6.03749 14.3301 6.13184 14.3301 6.22505 14.3187C6.57093 14.3175 6.9031 14.1834 7.15303 13.9445L8.39286 12.7748L10.7946 14.6696C11.265 15.0369 11.904 15.1037 12.4399 14.8412L12.6972 14.7087C13.1431 14.4793 13.4572 14.0557 13.547 13.5623L15.5979 2.95717C15.6956 2.41345 15.514 1.85693 15.1145 1.47541V1.47564ZM12.4006 13.3754C12.3751 13.5118 12.2889 13.6292 12.1667 13.6952L11.9095 13.8277C11.8587 13.8536 11.8025 13.8668 11.7457 13.8668C11.6627 13.8652 11.5828 13.835 11.5195 13.7811L8.5875 11.4418C8.44289 11.3136 8.2254 11.3136 8.08056 11.4418L6.34933 13.0716C6.31757 13.0949 6.27965 13.1086 6.24013 13.1106V10.358C6.24013 10.2488 6.28536 10.1444 6.36486 10.0694C8.85251 7.73005 10.3418 6.42009 11.2307 5.67144C11.2878 5.61913 11.3216 5.54625 11.3244 5.4688C11.3308 5.39273 11.302 5.31825 11.2465 5.26617C11.1681 5.16793 11.0331 5.13572 10.9189 5.18826L5.0236 8.90796C4.9176 8.95845 4.79424 8.95845 4.68823 8.90796L1.1714 7.70698L13.8591 2.20099C13.9052 2.19002 13.9532 2.19002 13.9994 2.20099C14.1134 2.20396 14.221 2.2549 14.2957 2.34126C14.4035 2.45594 14.4499 2.6154 14.4204 2.77007L12.4006 13.3752V13.3754Z" fill="white"/>
</svg>
