<svg width="16" height="16" viewBox="0 0 16 16" fill="none" xmlns="http://www.w3.org/2000/svg">
<path d="M8 2.58311C8.73159 2.58311 9.441 2.72628 10.1079 3.00823C10.7529 3.28087 11.3323 3.67163 11.8301 4.16935C12.3279 4.66707 12.7186 5.24637 12.9915 5.89116C13.2736 6.55811 13.4167 7.26721 13.4167 7.99882C13.4167 8.73042 13.2735 9.43952 12.9915 10.1065C12.7188 10.7513 12.3281 11.3306 11.8301 11.8283C11.3323 12.326 10.7529 12.7166 10.1079 12.9894C9.44083 13.2715 8.73159 13.4145 8 13.4145C7.26841 13.4145 6.559 13.2714 5.8919 12.9894C5.24698 12.7168 4.66757 12.3262 4.16974 11.8283C3.67191 11.3306 3.28124 10.7513 3.00837 10.1065C2.7262 9.43952 2.58316 8.73042 2.58316 7.99882C2.58316 7.26721 2.72637 6.55811 3.00837 5.89116C3.28107 5.24637 3.67191 4.66707 4.16974 4.16935C4.66757 3.67163 5.24698 3.28104 5.8919 3.00823C6.559 2.72628 7.26824 2.58311 8 2.58311ZM8 1.5C4.4101 1.5 1.5 4.4095 1.5 7.99865C1.5 11.5878 4.4101 14.4973 8 14.4973C11.5899 14.4973 14.5 11.5878 14.5 7.99865C14.5 4.4095 11.5899 1.5 8 1.5Z" fill="white"/>
<path d="M13.316 7.15044C13.316 7.14688 13.3166 7.1435 13.3166 7.1435C13.2972 7.21847 12.9911 7.56151 11.8507 7.86935C11.4257 7.98409 10.9465 8.07768 10.4307 8.14842C10.4311 8.09951 10.4314 8.0506 10.4314 8.00152C10.4312 4.41221 9.34164 1.50271 7.99729 1.50271C6.65294 1.50271 5.56335 4.41221 5.56335 8.00135C5.56335 8.05026 5.56352 8.09883 5.56402 8.1474C5.05012 8.07666 4.57294 7.98341 4.1496 7.86901C3.00905 7.56134 2.70318 7.21813 2.68371 7.14316C2.68371 7.14316 2.68439 7.14654 2.68439 7.1501H1.60105C1.60105 7.4378 1.72191 7.86343 2.29693 8.25741C2.63953 8.49197 3.11417 8.6981 3.70763 8.87004C4.26521 9.03149 4.90911 9.15774 5.60803 9.24541C5.82538 12.2394 6.81257 14.5 7.99746 14.5C9.18236 14.5 10.1692 12.2399 10.3867 9.24625C11.0877 9.15859 11.7339 9.032 12.2929 8.87038C12.8862 8.6986 13.3608 8.49231 13.7036 8.25775C14.2788 7.86393 14.3995 7.43814 14.3995 7.15044H13.316ZM6.64651 8.00152C6.64651 6.53933 6.84083 5.1406 7.19359 4.06307C7.34831 3.59023 7.53095 3.19252 7.72138 2.91278C7.84292 2.7344 7.94177 2.64285 7.99712 2.60325C8.05247 2.64268 8.15133 2.7344 8.27286 2.91278C8.46329 3.19252 8.64594 3.59023 8.80065 4.06307C9.15341 5.14043 9.34773 6.53916 9.34773 8.00152C9.34773 8.08766 9.34706 8.17364 9.3457 8.2591C8.91 8.28956 8.45872 8.30547 8 8.30547C7.54128 8.30547 7.08611 8.28956 6.64854 8.25876C6.64736 8.1733 6.64651 8.0875 6.64651 8.00152ZM8.80065 11.9398C8.64594 12.4126 8.46329 12.8104 8.27286 13.0901C8.15133 13.2683 8.05247 13.36 7.99712 13.3996C7.94177 13.3602 7.84292 13.2685 7.72138 13.0901C7.53095 12.8104 7.34831 12.4126 7.19359 11.9398C6.9512 11.1997 6.78379 10.3077 6.70254 9.34779C7.12453 9.3747 7.55888 9.38841 8 9.38841C8.44112 9.38841 8.87158 9.3747 9.29171 9.34796C9.21063 10.3079 9.04305 11.1997 8.80065 11.9398Z" fill="white"/>
</svg>
