<svg width="14" height="16" viewBox="0 0 14 16" fill="none" xmlns="http://www.w3.org/2000/svg">
<g clip-path="url(#clip0_3476_109471)">
<path d="M13.3289 4.23452V13.143C13.3289 14.7209 12.0747 16 10.5274 16H3.47831C2.73523 16 2.02279 15.699 1.49746 15.1633C0.972135 14.6276 0.677009 13.9008 0.677009 13.1432V4.23452C0.300871 4.2269 0 3.91382 0 3.53004C0 3.14625 0.300871 2.83336 0.677009 2.82575V2.82438H3.6886C3.97817 1.18924 5.37374 0 7.00297 0C8.63219 0 10.028 1.18924 10.3175 2.82418H13.3287V2.82594C13.7024 2.83668 13.9998 3.14879 13.9998 3.53004C13.9998 3.91128 13.7024 4.22339 13.3287 4.23432L13.3289 4.23452ZM7.00297 1.41268C6.13636 1.41971 5.36953 1.9865 5.09375 2.82438H8.91219C8.63641 1.98669 7.86958 1.41971 7.00297 1.41268ZM11.9732 4.23589H2.03256V12.8741C2.03256 13.8207 2.78521 14.5881 3.71349 14.5881H10.2924C11.2207 14.5881 11.9734 13.8207 11.9734 12.8741V4.23589H11.9732ZM8.58355 11.7649C8.40372 11.7649 8.23135 11.692 8.10438 11.5626C7.9774 11.4329 7.90597 11.2571 7.90597 11.0739V7.75069C7.90597 7.36886 8.20952 7.05948 8.58374 7.05948C8.95796 7.05948 9.26151 7.36886 9.26151 7.75069V11.0739C9.26151 11.4553 8.95854 11.7649 8.58432 11.7653L8.58355 11.7649ZM5.42066 11.7649C5.24083 11.7649 5.06847 11.692 4.94149 11.5626C4.81433 11.4329 4.74289 11.2571 4.74289 11.0739V7.75069C4.74289 7.36886 5.04644 7.05948 5.42086 7.05948C5.79527 7.05948 6.09863 7.36886 6.09863 7.75069V11.0739C6.09863 11.4553 5.79565 11.7649 5.42143 11.7653L5.42066 11.7649Z" fill="#848E9C"/>
</g>
<defs>
<clipPath id="clip0_3476_109471">
<rect width="14" height="16" fill="white"/>
</clipPath>
</defs>
</svg>
