<svg width="90" height="18" viewBox="0 0 90 18" fill="none" xmlns="http://www.w3.org/2000/svg">
<path fill-rule="evenodd" clip-rule="evenodd" d="M17.6751 0.124023L0 17.8744H9.10279L26.7779 0.124023H17.6751Z" fill="white"/>
<path d="M21.7932 12.8691L26.7786 17.876H17.676L14.2834 14.4688L15.8772 12.8691H21.7932Z" fill="white"/>
<path d="M9.10254 0.124023L12.4932 3.5293L11.0791 4.95117H4.80664L0 0.124023H9.10254Z" fill="white"/>
<path fill-rule="evenodd" clip-rule="evenodd" d="M47.5945 0L42.0917 9.73221L36.5836 0H32.7786V18H36.5541V7.20064L42.0891 16.9791L47.644 7.164V18H51.4825V0H47.5945Z" fill="white"/>
<path fill-rule="evenodd" clip-rule="evenodd" d="M85.4382 0L71.312 18H75.7818L89.9138 0H85.4382Z" fill="white"/>
<path fill-rule="evenodd" clip-rule="evenodd" d="M71.3164 0L85.4432 18H89.8603L75.7746 0H71.3164Z" fill="white"/>
<path fill-rule="evenodd" clip-rule="evenodd" d="M52.678 0L60.9773 14.6784L62.7574 10.5416L56.7916 0H52.678Z" fill="white"/>
<path fill-rule="evenodd" clip-rule="evenodd" d="M66.2987 0L57.4099 18H61.5139L70.4027 0H66.2987Z" fill="white"/>
</svg>
