<svg width="70" height="14" viewBox="0 0 70 14" fill="none" xmlns="http://www.w3.org/2000/svg">
<path fill-rule="evenodd" clip-rule="evenodd" d="M13.7473 0.0957031L0 13.9016H7.07993L20.8272 0.0957031H13.7473Z" fill="white"/>
<path fill-rule="evenodd" clip-rule="evenodd" d="M11.1094 11.252L12.3483 10.0078H16.9503L20.8277 13.9021H13.7482L11.1094 11.252Z" fill="white"/>
<path fill-rule="evenodd" clip-rule="evenodd" d="M8.61629 3.85042H3.73833L0 0.0957031H7.07993L9.71734 2.74468L8.61629 3.85042Z" fill="white"/>
<path fill-rule="evenodd" clip-rule="evenodd" d="M37.0181 0L32.7381 7.5695L28.4541 0H25.4946V14H28.4311V5.6005L32.7361 13.206L37.0566 5.572V14H40.0421V0H37.0181Z" fill="white"/>
<path fill-rule="evenodd" clip-rule="evenodd" d="M66.4523 0L55.4653 14H58.9418L69.9333 0H66.4523Z" fill="white"/>
<path fill-rule="evenodd" clip-rule="evenodd" d="M55.4688 0L66.4563 14H69.8918L58.9362 0H55.4688Z" fill="white"/>
<path fill-rule="evenodd" clip-rule="evenodd" d="M40.9722 0L47.4272 11.4165L48.8117 8.199L44.1717 0H40.9722Z" fill="white"/>
<path fill-rule="evenodd" clip-rule="evenodd" d="M51.5663 0L44.6528 14H47.8448L54.7583 0H51.5663Z" fill="white"/>
</svg>
