<svg width="16" height="16" viewBox="0 0 16 16" fill="none" xmlns="http://www.w3.org/2000/svg">
<g clip-path="url(#clip0_3916_43812)">
<path d="M8.30225 0C9.38037 8.01754e-08 10.3647 0.28125 11.2085 0.75C12.0991 1.26562 12.8491 1.96875 13.3647 2.85938C13.9272 3.70312 14.1616 4.6875 14.2085 5.71875C14.4897 5.90625 14.7241 6.04688 14.9585 6.28125C15.1929 6.51562 15.3804 6.75 15.5679 7.03125C15.7085 7.3125 15.8491 7.59375 15.9429 7.92188C16.0366 8.25 16.0835 8.57812 16.0835 8.95312C16.0835 9.75 15.8491 10.5 15.3335 11.1562C14.8179 11.7656 14.2085 12.1875 13.4585 12.4219L13.646 13.0781L14.1616 14.7656C14.2085 14.8594 14.2085 15 14.0679 15H13.3647C13.2241 15 13.1772 14.9062 13.1304 14.8125L12.6147 13.125L12.1929 11.6719H12.3804C13.0835 11.6719 13.7397 11.3906 14.2554 10.875C14.771 10.3125 15.0522 9.70312 15.0522 8.95312C15.0522 8.53125 14.9585 8.10938 14.771 7.73438C14.5835 7.40625 14.3491 7.125 14.0679 6.89062C13.8804 7.92188 13.5054 8.8125 12.8491 9.60938C12.146 10.4062 11.3491 11.0156 10.4116 11.3906L11.4429 14.7656C11.4897 14.8594 11.4429 15 11.3491 15H10.6929C10.5522 15 10.5054 14.9062 10.4585 14.8125L9.896 13.125L9.09912 10.8281H9.19287C10.3647 10.5938 11.3022 10.0312 12.0522 9.14062C12.8022 8.25 13.1772 7.17188 13.1772 6C13.1772 5.48438 13.1304 4.96875 12.9429 4.45312C12.7554 3.9375 12.521 3.51562 12.2397 3.09375C11.9116 2.67188 11.5835 2.29688 11.1616 2.01562C10.7397 1.73438 10.3179 1.45312 9.80225 1.3125C9.3335 1.17188 8.771 1.07812 8.25537 1.07812C7.36475 1.07812 6.521 1.3125 5.771 1.73438C5.021 2.15625 4.41162 2.76562 3.98975 3.51562C3.56787 4.26562 3.3335 5.10938 3.3335 6C3.3335 7.17188 3.7085 8.25 4.4585 9.14062C5.25537 10.0312 6.19287 10.5938 7.31787 10.8281H7.41162L6.61475 13.1719L6.05225 14.8125C6.00537 14.9062 5.91162 15 5.81787 15H5.16162C5.06787 15 5.021 14.8594 5.06787 14.7656L5.16162 14.5312L5.2085 14.2969L5.5835 13.125L6.146 11.3906C5.16162 11.0156 4.36475 10.4062 3.7085 9.60938C3.05225 8.8125 2.67725 7.875 2.48975 6.89062C2.2085 7.125 2.021 7.40625 1.8335 7.73438C1.646 8.10938 1.55225 8.53125 1.55225 8.95312C1.55225 9.70312 1.8335 10.3594 2.34912 10.875C2.86475 11.3906 3.47412 11.6719 4.22412 11.6719H4.36475V11.7656L3.94287 13.125L3.521 14.8125C3.47412 14.9062 3.38037 15 3.28662 15H2.5835C2.48975 15 2.48975 14.9062 2.48975 14.8125V14.7656L2.9585 13.2188L3.19287 12.4219C2.44287 12.1875 1.78662 11.7656 1.31787 11.1562C0.802246 10.5469 0.567871 9.79688 0.567871 8.95312C0.567871 8.25 0.755371 7.64062 1.0835 7.07812C1.41162 6.51562 1.88037 6.09375 2.396 5.76562C2.396 5.39062 2.44287 5.01562 2.53662 4.64062C2.63037 4.26562 2.771 3.89062 2.91162 3.5625C3.05225 3.1875 3.23975 2.85938 3.47412 2.57812C3.66162 2.25 3.896 1.96875 4.17725 1.73438C4.73975 1.17188 5.34912 0.75 6.05225 0.46875C6.38037 0.328125 6.75537 0.234375 7.13037 0.140625C7.50537 0.0468751 7.92725 0 8.30225 0ZM6.42725 6.09375V6.1875C6.42725 6.32812 6.42725 6.51563 6.47412 6.65625C6.521 6.79687 6.56787 6.9375 6.66162 7.07812C6.75537 7.21875 6.84912 7.35938 6.94287 7.45312C7.08349 7.54687 7.17725 7.64063 7.31787 7.73438C7.45849 7.82812 7.59912 7.875 7.73975 7.92188C7.88037 7.96875 8.06787 7.96875 8.2085 7.96875C8.72412 7.96875 9.146 7.78125 9.47412 7.45312C9.80225 7.07813 9.98975 6.65625 9.98975 6.1875V6.09375H10.9741V6.1875C10.9741 6.9375 10.6929 7.59375 10.1772 8.10938C9.66162 8.625 9.00537 8.90625 8.25537 8.90625C7.50537 8.90625 6.84912 8.625 6.3335 8.10938C5.81787 7.59375 5.53662 6.9375 5.53662 6.1875V6.09375H6.42725Z" fill="white"/>
</g>
<defs>
<clipPath id="clip0_3916_43812">
<rect width="16" height="16" fill="white"/>
</clipPath>
</defs>
</svg>
