<svg width="16" height="16" viewBox="0 0 16 16" fill="none" xmlns="http://www.w3.org/2000/svg">
<path d="M7.56787 1C8.51715 1 9.42602 1.18295 10.2935 1.5498C11.1308 1.90403 11.8724 2.40419 12.5181 3.0498C13.1636 3.69557 13.6638 4.43771 14.0181 5.27539C14.3849 6.14257 14.5679 7.0508 14.5679 8C14.5679 8.94914 14.385 9.85729 14.0181 10.7246C13.9686 10.8415 13.915 10.9562 13.8599 11.0693C13.858 11.0744 13.857 11.08 13.855 11.085C13.852 11.0923 13.8484 11.0993 13.8452 11.1064C13.8418 11.1136 13.8383 11.1209 13.8345 11.1279C13.8307 11.1349 13.8267 11.1417 13.8228 11.1484C13.819 11.1546 13.8148 11.1609 13.811 11.167C13.4775 11.8255 13.0475 12.4208 12.5181 12.9502C11.8725 13.5957 11.1309 14.0952 10.2935 14.4492C9.42602 14.8161 8.51715 15 7.56787 15C6.61866 15 5.71064 14.8162 4.84326 14.4492C4.00594 14.095 3.26413 13.5956 2.61865 12.9502C1.97289 12.3044 1.47292 11.5621 1.11865 10.7246C0.751657 9.85722 0.567871 8.94903 0.567871 8C0.567896 7.05084 0.750884 6.14254 1.11768 5.27539C1.47187 4.43788 1.9721 3.69645 2.61768 3.05078C3.26325 2.40521 4.00558 1.90524 4.84326 1.55078C5.71064 1.18376 6.61866 1.00002 7.56787 1ZM9.59424 2.32617C9.60902 2.45158 9.63173 2.6001 9.6626 2.77148C9.68621 2.90244 9.72849 3.00141 9.78857 3.06836C9.82804 3.11202 9.9096 3.17095 10.0327 3.24414C10.1397 3.30762 10.2206 3.36098 10.2759 3.40332C10.3882 3.48955 10.4785 3.58695 10.5464 3.69531C10.7015 3.94255 10.749 4.26148 10.688 4.65234C10.618 5.1 10.4256 5.41264 10.1108 5.58984C9.98876 5.6587 9.84417 5.70693 9.67822 5.73535C9.59543 5.74944 9.47209 5.76201 9.30908 5.77344C9.10804 5.78755 8.96235 5.80701 8.87256 5.83008C8.74625 5.86271 8.6381 5.91796 8.54834 5.99609C8.48844 6.04838 8.45296 6.13935 8.44189 6.26953C8.43522 6.34832 8.43586 6.44672 8.44482 6.56348C8.45094 6.64171 8.46469 6.76581 8.48584 6.93555C8.51369 7.15684 8.53073 7.32478 8.5376 7.43848C8.54978 7.64635 8.54317 7.83094 8.51709 7.99219C8.4404 8.46339 8.1978 8.81323 7.78955 9.04102C7.38978 9.26404 6.94699 9.29145 6.46143 9.12305C6.29593 9.06544 6.11543 8.98047 5.92041 8.86914C5.8117 8.80713 5.65526 8.71071 5.45166 8.5791C4.99424 8.28306 4.7305 8.15348 4.66064 8.19141C4.58627 8.23202 4.5274 8.32379 4.48486 8.46582C4.45988 8.54898 4.43953 8.65361 4.42236 8.7793C4.41111 8.86228 4.39718 8.99331 4.38135 9.17188C4.36744 9.33032 4.35572 9.4492 4.34619 9.52832C4.32902 9.66911 4.3079 9.79315 4.28271 9.89941C4.20738 10.218 4.07554 10.4631 3.88721 10.6348C3.5041 10.9842 2.98426 11.0952 2.32764 10.9697C2.59371 11.4396 2.91981 11.8698 3.30908 12.2588C3.86496 12.8149 4.50265 13.2459 5.22314 13.5508C5.96887 13.8661 6.75079 14.0234 7.56787 14.0234C7.82343 14.0234 8.07517 14.0055 8.32373 13.9746C8.24148 13.8394 8.17433 13.7045 8.12354 13.5703C7.97377 13.1741 7.95893 12.7883 8.07861 12.4121C8.15928 12.159 8.26642 11.9413 8.3999 11.7598C8.47926 11.6518 8.59226 11.5302 8.73877 11.3965C8.8098 11.3315 8.85753 11.2848 8.88135 11.2559C8.91032 11.2206 8.93312 11.1804 8.94971 11.1357C8.96322 11.0994 8.96595 11.0007 8.95947 10.8398C8.9528 10.6783 8.9532 10.5509 8.96045 10.458C8.97401 10.2816 9.01223 10.1192 9.07471 9.9707C9.22732 9.60785 9.53536 9.30378 9.99951 9.06055C10.5237 8.78573 11.1223 8.79742 11.7954 9.09473C12.2356 9.28932 12.7131 9.6127 13.228 10.0645C13.4699 9.40369 13.5913 8.71543 13.5913 8C13.5913 7.1829 13.4329 6.40184 13.1177 5.65625C12.8128 4.9357 12.3828 4.29712 11.8267 3.74121C11.271 3.18517 10.633 2.75504 9.9126 2.4502C9.80729 2.40566 9.70097 2.36442 9.59424 2.32617ZM11.4009 9.98828C11.0149 9.81773 10.6987 9.79682 10.4526 9.92578C10.1958 10.0604 10.036 10.2014 9.97412 10.3486C9.95256 10.4 9.93961 10.4619 9.93408 10.5332C9.9299 10.5879 9.93011 10.6767 9.93506 10.7998C9.9404 10.9297 9.94142 11.0294 9.93799 11.0986C9.93074 11.2379 9.90614 11.3638 9.86475 11.4756C9.81023 11.6224 9.73411 11.7555 9.63623 11.875C9.58284 11.9402 9.50277 12.0215 9.39697 12.1182C9.29828 12.2083 9.22824 12.2818 9.18701 12.3379C9.11681 12.4337 9.05754 12.5575 9.00928 12.709C8.91433 13.0076 9.03217 13.3545 9.36279 13.751C9.54794 13.693 9.73165 13.6273 9.9126 13.5508C10.6331 13.2459 11.271 12.8147 11.8267 12.2588C12.2099 11.8756 12.5316 11.4525 12.7954 10.9912C12.2725 10.5033 11.8082 10.1683 11.4009 9.98828ZM7.56787 1.97656C6.75077 1.97659 5.96971 2.13495 5.22412 2.4502C4.50358 2.75505 3.86499 3.18511 3.30908 3.74121C2.75322 4.2971 2.3229 4.93575 2.01807 5.65625C1.70265 6.40182 1.54446 7.18293 1.54443 8C1.54443 8.61972 1.63546 9.21909 1.81689 9.79785C1.82009 9.79857 1.82347 9.79903 1.82666 9.7998C1.83432 9.80167 1.84165 9.80422 1.84912 9.80664C1.85675 9.80893 1.86512 9.81159 1.87256 9.81445C1.87988 9.81709 1.8877 9.81926 1.89502 9.82227C1.89935 9.82404 1.90348 9.82622 1.90771 9.82812C2.26965 9.97166 2.57135 10.0439 2.81299 10.0439C2.99506 10.0439 3.13384 10.001 3.229 9.91406C3.26885 9.87784 3.30354 9.79829 3.33252 9.67578C3.35846 9.56551 3.3837 9.36847 3.40869 9.08594C3.42585 8.89229 3.44124 8.74644 3.45459 8.64844C3.47862 8.4721 3.50966 8.31768 3.54932 8.18555C3.66912 7.78683 3.88442 7.5036 4.19385 7.33496C4.48869 7.17421 4.82611 7.16939 5.20654 7.32129C5.32616 7.36898 5.46087 7.43764 5.60986 7.52539C5.69285 7.57424 5.81732 7.6517 5.98291 7.75879C6.17141 7.88077 6.31188 7.96844 6.40479 8.02148C6.54767 8.10313 6.67397 8.16242 6.78271 8.2002C6.89278 8.23853 6.99101 8.25698 7.07666 8.25488C7.15953 8.25274 7.23851 8.23059 7.31396 8.18848C7.38853 8.14671 7.44414 8.09765 7.48096 8.04102C7.5153 7.98798 7.53968 7.9195 7.55322 7.83594C7.56785 7.74583 7.57097 7.63296 7.56299 7.49707C7.55746 7.40455 7.54227 7.25793 7.51709 7.05762C7.49382 6.87219 7.47844 6.73234 7.47119 6.63867C7.45823 6.46935 7.45799 6.31889 7.46924 6.1875C7.50263 5.79414 7.64846 5.48427 7.90771 5.25879C8.11354 5.07988 8.35434 4.95553 8.62939 4.88477C8.72972 4.85883 8.8403 4.83833 8.96045 4.82422C9.02662 4.81641 9.12044 4.80818 9.2417 4.7998C9.37237 4.79068 9.46317 4.78218 9.51416 4.77344C9.56845 4.76433 9.60766 4.75253 9.63135 4.73926C9.67102 4.71694 9.70178 4.63771 9.72314 4.50195C9.73838 4.40404 9.74264 4.32593 9.73486 4.26758C9.73144 4.24286 9.72648 4.22497 9.72021 4.21484C9.70687 4.19349 9.64482 4.14955 9.53467 4.08398C9.44157 4.02866 9.36919 3.98273 9.31787 3.94629C9.22081 3.87725 9.13527 3.80294 9.06299 3.72266C8.87859 3.51779 8.75811 3.25808 8.70166 2.94434C8.63484 2.57303 8.60081 2.27969 8.59814 2.06445C8.2613 2.0066 7.91786 1.97656 7.56787 1.97656Z" fill="white"/>
</svg>
