<svg width="16" height="16" viewBox="0 0 16 16" fill="none" xmlns="http://www.w3.org/2000/svg">
<path d="M2.2002 7C2.86285 7.00011 3.40039 7.53752 3.40039 8.2002C3.40029 8.86278 2.86278 9.40029 2.2002 9.40039C1.53752 9.40039 1.00011 8.86285 1 8.2002C1 7.53745 1.53745 7 2.2002 7ZM8.2002 7C8.86285 7.00011 9.40039 7.53752 9.40039 8.2002C9.40028 8.86278 8.86278 9.40029 8.2002 9.40039C7.53752 9.40039 7.00011 8.86285 7 8.2002C7 7.53745 7.53745 7 8.2002 7ZM14.2002 7C14.8628 7.00011 15.4004 7.53752 15.4004 8.2002C15.4003 8.86278 14.8628 9.40029 14.2002 9.40039C13.5375 9.40039 13.0001 8.86285 13 8.2002C13 7.53745 13.5375 7 14.2002 7Z" fill="white"/>
</svg>
