<svg width="12" height="12" viewBox="0 0 12 12" fill="none" xmlns="http://www.w3.org/2000/svg">
<path d="M11.8097 1.68839L10.9876 2.31621C9.81177 0.856083 8.03672 0.0094569 6.16146 0.0176369C2.777 0.0176369 0.0387625 2.68839 0.0346725 5.9931C0.0305826 9.29985 2.77496 11.9829 6.16146 11.9829C8.80563 11.9829 11.0613 10.3448 11.9202 8.05036C11.9304 8.02173 11.9283 7.98901 11.9161 7.96242C11.9017 7.93379 11.8793 7.91334 11.8486 7.90312L11.0224 7.625C10.9631 7.60455 10.8977 7.63318 10.8731 7.69248C10.6216 8.3612 10.2249 8.96447 9.71157 9.46344C8.76473 10.3898 7.49071 10.9052 6.16555 10.899C5.4948 10.9011 4.83222 10.7702 4.21259 10.5146C3.01831 10.0238 2.06126 9.08717 1.54388 7.90516C1.28212 7.30394 1.14715 6.65567 1.14715 5.99923C1.14715 5.33666 1.28007 4.69453 1.54183 4.09126C1.79541 3.50639 2.15942 2.97674 2.61545 2.53297C3.56433 1.60659 4.8404 1.08921 6.16555 1.09739C6.83426 1.09535 7.49889 1.22623 8.11647 1.48185C8.8997 1.80291 9.58887 2.31825 10.1165 2.98083L9.23917 3.65158C9.20441 3.67817 9.18805 3.72316 9.19623 3.7661C9.20441 3.80905 9.23917 3.84381 9.28212 3.85199L11.8445 4.46344C11.9161 4.48185 11.9876 4.42663 11.9876 4.35506L11.9999 1.77837C11.9999 1.68226 11.8874 1.63113 11.8097 1.68839Z" fill="#F29D39"/>
<mask id="mask0_3940_30400" style="mask-type:alpha" maskUnits="userSpaceOnUse" x="0" y="0" width="12" height="12">
<path d="M11.8097 1.68839L10.9876 2.31621C9.81177 0.856083 8.03672 0.0094569 6.16146 0.0176369C2.777 0.0176369 0.0387625 2.68839 0.0346725 5.9931C0.0305826 9.29985 2.77496 11.9829 6.16146 11.9829C8.80563 11.9829 11.0613 10.3448 11.9202 8.05036C11.9304 8.02173 11.9283 7.98901 11.9161 7.96242C11.9017 7.93379 11.8793 7.91334 11.8486 7.90312L11.0224 7.625C10.9631 7.60455 10.8977 7.63318 10.8731 7.69248C10.6216 8.3612 10.2249 8.96447 9.71157 9.46344C8.76473 10.3898 7.49071 10.9052 6.16555 10.899C5.4948 10.9011 4.83222 10.7702 4.21259 10.5146C3.01831 10.0238 2.06126 9.08717 1.54388 7.90516C1.28212 7.30394 1.14715 6.65567 1.14715 5.99923C1.14715 5.33666 1.28007 4.69453 1.54183 4.09126C1.79541 3.50639 2.15942 2.97674 2.61545 2.53297C3.56433 1.60659 4.8404 1.08921 6.16555 1.09739C6.83426 1.09535 7.49889 1.22623 8.11647 1.48185C8.8997 1.80291 9.58887 2.31825 10.1165 2.98083L9.23917 3.65158C9.20441 3.67817 9.18805 3.72316 9.19623 3.7661C9.20441 3.80905 9.23917 3.84381 9.28212 3.85199L11.8445 4.46344C11.9161 4.48185 11.9876 4.42663 11.9876 4.35506L11.9999 1.77837C11.9999 1.68226 11.8874 1.63113 11.8097 1.68839Z" fill="#F29D39"/>
</mask>
<g mask="url(#mask0_3940_30400)">
<rect x="-1.96533" y="6.01758" width="15" height="7" fill="url(#paint0_linear_3940_30400)"/>
</g>
<defs>
<linearGradient id="paint0_linear_3940_30400" x1="1.03467" y1="4.01758" x2="7.03467" y2="8.01758" gradientUnits="userSpaceOnUse">
<stop stop-color="#F29D39"/>
<stop offset="1" stop-color="#1A1106"/>
</linearGradient>
</defs>
</svg>
