<svg width="17" height="16" viewBox="0 0 17 16" fill="none" xmlns="http://www.w3.org/2000/svg">
<g clip-path="url(#clip0_3916_50092)">
<path d="M15.1375 0H16.8408V1.51C16.713 3.94778 15.743 6.33556 14.1008 8.14556C13.3753 8.92889 12.5919 9.65667 11.8519 10.4244C11.8219 11.4311 11.8553 12.4344 11.8219 13.4411C11.0086 14.25 10.2064 15.07 9.38415 15.87H9.29749C8.70304 15.31 8.14971 14.7067 7.55304 14.1478C6.98415 14.3711 6.37749 14.5033 5.82526 14.7611C4.90415 15.58 3.66971 15.9456 2.45749 16H0.84082V14.2989C0.917487 13.1144 1.2786 11.9156 2.07971 11.0156C2.33749 10.4644 2.46749 9.85778 2.69304 9.29222C2.20526 8.76778 1.68415 8.27333 1.1786 7.76444C1.09971 7.67 0.967487 7.59667 0.959709 7.45889C1.77193 6.64444 2.58415 5.83111 3.39971 5.02111C4.13971 4.94222 4.87971 5.05222 5.61971 4.98444C5.89971 4.96222 6.20527 5.09333 6.46638 4.95111C7.12971 4.29 7.78971 3.62556 8.45304 2.96444C10.2453 1.22778 12.6586 0.198889 15.1375 0V0ZM11.7497 1.91111C10.843 2.31667 10.0142 2.89111 9.28193 3.56C8.45638 4.37667 7.6386 5.2 6.8186 6.02222L6.66082 5.98778C5.71638 6.04667 4.77193 5.96889 3.82749 6.01333C3.34971 6.48889 2.8686 6.96111 2.40082 7.44556L2.40304 7.55778C2.87526 8.04667 3.36193 8.52222 3.84304 9.00222C3.8486 9.00778 3.86082 9.01889 3.86638 9.02444C3.55193 9.72556 3.3586 10.4867 3.10304 11.2156C3.11971 11.2467 3.15526 11.31 3.17193 11.3422C2.11415 12.2167 1.78971 13.6789 1.85304 14.9789C3.17193 15.0611 4.6186 14.7222 5.4986 13.6678C5.52638 13.6878 5.58415 13.7289 5.61193 13.7489C6.33971 13.4756 7.11526 13.2989 7.81415 12.97C7.82082 12.9778 7.83304 12.9911 7.8386 12.9978C8.24193 13.41 8.65415 13.8133 9.05971 14.2233C9.16638 14.2989 9.23749 14.49 9.39749 14.4367C9.87082 13.9867 10.323 13.5133 10.7897 13.0556C10.9186 12.4267 10.813 11.7589 10.8275 11.1144C10.8197 10.7522 10.9086 10.3833 10.8186 10.0256C11.6619 9.18667 12.5097 8.35111 13.3386 7.49778C13.9786 6.77889 14.5364 5.97444 14.9264 5.09333C15.5297 3.82333 15.873 2.40556 15.8142 0.994444C14.4186 1.00889 13.0108 1.29778 11.7497 1.91111Z" fill="black"/>
<path d="M11.75 1.91081C13.0111 1.29747 14.4189 1.00859 15.8144 0.994141C15.8733 2.40525 15.53 3.82303 14.9267 5.09303C13.8667 4.03414 12.8122 2.96859 11.75 1.91081Z" fill="#E81224"/>
<path d="M9.28166 3.55905C10.0139 2.89016 10.8428 2.31571 11.7494 1.91016C12.8117 2.96793 13.8661 4.03349 14.9261 5.09238C14.5361 5.97349 13.9783 6.77793 13.3383 7.49682C12.5094 8.35016 11.6617 9.18571 10.8183 10.0246C9.81833 11.0079 8.83388 12.009 7.83833 12.9968C7.83277 12.9902 7.82055 12.9768 7.81388 12.969C6.49722 11.6546 5.18388 10.3368 3.86611 9.02349C3.86055 9.01793 3.84833 9.00682 3.84277 9.00127C4.83277 8.00571 5.83055 7.01793 6.81833 6.02127C7.63833 5.19905 8.45611 4.37571 9.28166 3.55905ZM10.2228 4.62793C9.86833 4.78571 9.57611 5.08905 9.43944 5.45349C9.10055 6.23571 9.59277 7.21682 10.4083 7.44238C11.3228 7.75571 12.3828 6.97127 12.3428 6.0046C12.3994 4.95571 11.1606 4.14793 10.2228 4.62793ZM8.38388 8.09571C7.57055 8.91349 6.75388 9.72793 5.93722 10.5435C5.805 10.639 5.85944 10.8124 5.88833 10.9435C6.02055 10.9835 6.19722 11.0379 6.295 10.9024C7.11166 10.0868 7.92722 9.27016 8.74388 8.4546C8.87277 8.35793 8.83277 8.17682 8.78166 8.05016C8.65388 8.00793 8.47833 7.96905 8.38388 8.09571Z" fill="white"/>
<path d="M10.2228 4.6282C11.1606 4.1482 12.3995 4.95598 12.3428 6.00487C12.3828 6.97153 11.3228 7.75598 10.4083 7.44264C9.59279 7.21709 9.10057 6.23598 9.43946 5.45376C9.57612 5.08931 9.86835 4.78598 10.2228 4.6282ZM10.5417 5.04153C9.8039 5.2282 9.59501 6.29153 10.1806 6.76153C10.7395 7.27376 11.8039 6.89931 11.8283 6.11376C11.9539 5.41042 11.2039 4.8182 10.5417 5.04153Z" fill="#A6A6A6"/>
<path d="M10.5423 5.042C11.2045 4.81867 11.9545 5.41089 11.8289 6.11422C11.8045 6.89978 10.7401 7.27422 10.1812 6.762C9.59561 6.292 9.8045 5.22867 10.5423 5.042Z" fill="#CCCCCC"/>
<path d="M2.40039 7.44606C2.86817 6.96161 3.34928 6.48939 3.82706 6.01384C4.7715 5.96939 5.71595 6.04717 6.66039 5.98828L6.81817 6.02273C5.83039 7.01939 4.83261 8.00717 3.84261 9.00273C3.3615 8.52273 2.87484 8.04717 2.40261 7.55828L2.40039 7.44606Z" fill="#00BCF2"/>
<path d="M8.38408 8.09785C8.47853 7.97119 8.65408 8.01008 8.78186 8.0523C8.83297 8.17897 8.87297 8.36008 8.74408 8.45674C7.92742 9.2723 7.11186 10.089 6.2952 10.9045C6.19742 11.0401 6.02075 10.9856 5.88853 10.9456C5.85964 10.8145 5.8052 10.6412 5.93742 10.5456C6.75408 9.73008 7.57075 8.91563 8.38408 8.09785Z" fill="#00BCF2"/>
<path d="M7.83789 12.9976C8.83345 12.0098 9.81789 11.0087 10.8179 10.0254C10.9079 10.3832 10.819 10.7521 10.8268 11.1143C10.8123 11.7587 10.9179 12.4265 10.789 13.0554C10.3223 13.5132 9.87011 13.9865 9.39678 14.4365C9.23678 14.4898 9.16567 14.2987 9.059 14.2232C8.65345 13.8132 8.24122 13.4098 7.83789 12.9976Z" fill="#00BCF2"/>
<path d="M3.86685 9.02539C5.18463 10.3387 6.49796 11.6565 7.81463 12.9709C7.11574 13.2998 6.34018 13.4765 5.6124 13.7498C5.58463 13.7298 5.52685 13.6887 5.49907 13.6687C5.32463 13.4898 5.15129 13.3087 4.9724 13.1354C4.55129 12.7132 4.12907 12.2909 3.70685 11.8698C3.53129 11.6909 3.35352 11.5154 3.1724 11.3432C3.15574 11.3109 3.12018 11.2476 3.10352 11.2165C3.35907 10.4876 3.5524 9.7265 3.86685 9.02539Z" fill="#4A5459"/>
<path d="M1.85328 14.9785C1.78995 13.6785 2.11439 12.2162 3.17217 11.3418C3.35328 11.514 3.53106 11.6896 3.70662 11.8685C3.13328 12.4162 2.86217 13.2074 2.85106 13.9885C3.63217 13.9796 4.42439 13.7074 4.97217 13.134C5.15106 13.3074 5.32439 13.4885 5.49884 13.6674C4.61884 14.7218 3.17217 15.0607 1.85328 14.9785Z" fill="#F7630C"/>
<path d="M3.70614 11.8691C4.12836 12.2903 4.55059 12.7125 4.9717 13.1347C4.42392 13.708 3.6317 13.9803 2.85059 13.9891C2.8617 13.208 3.13281 12.4169 3.70614 11.8691Z" fill="#FFC83D"/>
</g>
<defs>
<clipPath id="clip0_3916_50092">
<rect width="16" height="16" fill="white" transform="translate(0.84082)"/>
</clipPath>
</defs>
</svg>
