<svg width="12" height="14" viewBox="0 0 12 14" fill="none" xmlns="http://www.w3.org/2000/svg">
<g clip-path="url(#clip0_3916_43793)">
<mask id="mask0_3916_43793" style="mask-type:luminance" maskUnits="userSpaceOnUse" x="0" y="0" width="12" height="14">
<path d="M12 0.5H0.00195312V13.5H12V0.5Z" fill="white"/>
</mask>
<g mask="url(#mask0_3916_43793)">
<path d="M9.99566 10.0352L11.7926 12.1492C12.0847 12.4927 12.0394 13.0048 11.6914 13.2933C11.3434 13.5816 10.8246 13.5368 10.5325 13.1934L8.7208 11.0614C6.1322 12.5958 2.78232 11.8952 1.04658 9.45603C-0.689163 7.01702 -0.221211 3.66854 2.11887 1.78473C4.45895 -0.0990755 7.87566 0.121989 9.94666 2.29125C12.0177 4.4605 12.039 7.8407 9.99549 10.0352H9.99566ZM5.75839 10.6529C8.25654 10.6529 10.2818 8.6536 10.2818 6.18763C10.2818 3.72166 8.2567 1.72225 5.75839 1.72225C3.26007 1.72225 1.23517 3.72151 1.23517 6.18763C1.23517 8.65375 3.2604 10.6529 5.75855 10.6529H5.75839Z" fill="white"/>
</g>
</g>
<defs>
<clipPath id="clip0_3916_43793">
<rect width="12" height="13" fill="white" transform="translate(0 0.5)"/>
</clipPath>
</defs>
</svg>
