<svg width="20" height="20" viewBox="0 0 20 20" fill="none" xmlns="http://www.w3.org/2000/svg">
<path d="M10.1018 2C5.69688 2 2.11328 5.57889 2.11328 9.97799C2.11328 14.3771 5.69688 17.958 10.1018 17.958C14.5066 17.958 18.0902 14.3791 18.0902 9.97999C18.0902 5.58089 14.5066 2 10.1018 2ZM13.479 11.7664C13.9157 12.2025 13.9157 12.9167 13.479 13.3528C13.0424 13.7889 12.3272 13.7889 11.8906 13.3528L10.1018 11.5664L8.31297 13.3528C7.87629 13.7889 7.16117 13.7889 6.72449 13.3528C6.2878 12.9167 6.2878 12.2025 6.72449 11.7664L8.51328 9.97999L6.72449 8.19355C6.2878 7.75744 6.2878 7.04326 6.72449 6.60715C7.16117 6.17104 7.87629 6.17104 8.31297 6.60715L10.1018 8.3936L11.8906 6.60715C12.3272 6.17104 13.0424 6.17104 13.479 6.60715C13.9157 7.04326 13.9157 7.75744 13.479 8.19355L11.6902 9.97999L13.479 11.7664Z" fill="#848E9C"/>
</svg>
