<svg width="10" height="10" viewBox="0 0 10 10" fill="none" xmlns="http://www.w3.org/2000/svg">
<path d="M0.256836 0.254883C0.597238 -0.0855197 1.15179 -0.0855197 1.49219 0.254883L5 3.78125L8.50781 0.276367C8.84822 -0.0640353 9.40178 -0.0640353 9.74219 0.276367C10.0825 0.616777 10.0826 1.17037 9.74219 1.51074L6.22656 5.01465L9.7207 8.52734C9.96385 8.77589 10.034 9.14335 9.9043 9.46484C9.76918 9.78342 9.45891 9.99453 9.11328 10C8.88365 9.9973 8.66721 9.90233 8.50781 9.74023L5.00293 6.23535L1.49121 9.7373C1.32378 9.90727 1.09714 10.0017 0.862305 9.99902C0.516614 9.99362 0.205695 9.78323 0.0732422 9.46191C-0.0590907 9.14053 0.0138934 8.77296 0.256836 8.52441L3.77441 5.00684L0.256836 1.48926C-0.0858727 1.1462 -0.0859625 0.595191 0.256836 0.254883Z" fill="#EC605A"/>
</svg>
