<svg width="20" height="20" viewBox="0 0 20 20" fill="none" xmlns="http://www.w3.org/2000/svg">
<path d="M10 0C15.5228 1.28846e-07 19.9998 4.47728 20 10C20 15.5228 15.5228 20 10 20C4.47715 20 0 15.5228 0 10C0.000150793 4.47728 4.47725 0 10 0ZM13.8672 6.08887C13.5093 5.73113 12.9292 5.73124 12.5713 6.08887L9.97754 8.68164L7.38574 6.08887C7.02776 5.73089 6.44685 5.73089 6.08887 6.08887C5.73089 6.44685 5.73089 7.02776 6.08887 7.38574L8.68164 9.97754L6.08887 12.5713C5.73124 12.9292 5.73114 13.5093 6.08887 13.8672C6.44685 14.2252 7.02776 14.2252 7.38574 13.8672L9.97754 11.2744L12.5713 13.8672C12.9293 14.225 13.5093 14.2251 13.8672 13.8672C14.2251 13.5093 14.225 12.9293 13.8672 12.5713L11.2744 9.97754L13.8672 7.38574C14.2252 7.02776 14.2252 6.44685 13.8672 6.08887Z" fill="#EC605A"/>
</svg>
