<svg width="20" height="20" viewBox="0 0 20 20" fill="none" xmlns="http://www.w3.org/2000/svg">
<g clip-path="url(#clip0_4831_2360)">
<path d="M9.99073 0.0117188C4.49583 0.0117188 0 4.50339 0 9.9932C0 15.483 4.49583 19.9747 9.99073 19.9747C15.4856 19.9747 19.9815 15.483 19.9815 9.9932C19.9815 4.50339 15.4856 0.0117188 9.99073 0.0117188ZM15.3607 7.49783L8.61701 14.2353C8.49212 14.3601 8.24235 14.3601 8.11747 14.2353L4.62071 10.7418C4.49583 10.617 4.49583 10.3675 4.62071 10.2427L5.4949 9.36936C5.61979 9.24459 5.86955 9.24459 5.99444 9.36936L8.36724 11.74L13.987 6.12538C14.1119 6.00061 14.3617 6.00061 14.4866 6.12538L15.3607 6.99875C15.4856 7.12352 15.4856 7.24829 15.3607 7.49783Z" fill="#00E3A5"/>
</g>
<defs>
<clipPath id="clip0_4831_2360">
<rect width="20" height="20" fill="white"/>
</clipPath>
</defs>
</svg>
