<svg width="11" height="12" viewBox="0 0 11 12" fill="none" xmlns="http://www.w3.org/2000/svg">
<path d="M10.335 2.10004H7.71002V1.07701C7.70341 0.483719 7.22324 0.00483397 6.62995 0H4.16688C3.57424 0.00644529 3.09503 0.484363 3.08697 1.07701V2.10004H0.461966C0.206733 2.10004 0 2.30693 0 2.562C0 2.81707 0.206894 3.02397 0.461966 3.02397H0.929894V10.9228C0.937951 11.5155 1.41732 11.9934 2.00996 11.9998H8.78702C9.38031 11.995 9.86049 11.5161 9.86693 10.9228V3.01495H10.3349C10.5899 3.01495 10.7968 2.80805 10.7968 2.55298C10.7968 2.29791 10.5899 2.09101 10.3349 2.09101L10.335 2.10004ZM4.01106 1.07701C4.00929 1.03527 4.02524 0.994991 4.05505 0.965827C4.0847 0.936662 4.12563 0.921515 4.16704 0.924093H6.63011C6.67168 0.921515 6.71245 0.936662 6.74226 0.965827C6.7719 0.994991 6.78802 1.03544 6.78625 1.07701V2.10004H4.01123L4.01106 1.07701ZM8.943 10.923C8.94477 10.9647 8.92882 11.005 8.89901 11.0343C8.8692 11.0635 8.82844 11.0786 8.78702 11.0761H2.00996C1.96839 11.0786 1.92762 11.0635 1.89782 11.0343C1.86817 11.0052 1.85205 10.9647 1.85383 10.923V3.07795H8.94284L8.943 10.923Z" fill="white"/>
<path d="M4.16704 9.23094C4.41954 9.2245 4.62272 9.02147 4.62901 8.76898V5.40002C4.62901 5.14479 4.42211 4.93806 4.16704 4.93806C3.91197 4.93806 3.70507 5.14495 3.70507 5.40002V8.76898C3.71136 9.02147 3.91455 9.22466 4.16704 9.23094ZM6.62995 9.23094C6.88309 9.22611 7.08724 9.02195 7.09191 8.76898V5.40002C7.09191 5.14479 6.88502 4.93806 6.62995 4.93806C6.37487 4.93806 6.16798 5.14495 6.16798 5.40002V8.76898C6.17427 9.02147 6.37745 9.22466 6.62995 9.23094Z" fill="white"/>
</svg>
