<svg width="14" height="14" viewBox="0 0 14 14" fill="none" xmlns="http://www.w3.org/2000/svg">
<path d="M6.98704 0C10.8459 0 13.9741 3.12813 13.9741 6.98704C13.9741 10.8459 10.8459 13.9741 6.98704 13.9741C3.12813 13.9741 0 10.8459 0 6.98704C0 3.12813 3.12813 0 6.98704 0ZM9.72812 4.58132H4.24595C3.91434 4.58132 3.64551 4.8609 3.64551 5.2065V9.09611C3.64551 9.4412 3.91417 9.72129 4.24527 9.72129H9.72846C10.0596 9.72129 10.3282 9.44188 10.3282 9.09611V7.61051L8.52773 7.61103C8.18384 7.61103 7.90425 7.32087 7.90425 6.96179C7.90425 6.60272 8.18384 6.31256 8.52773 6.31256H10.3282V5.20582C10.3282 4.86073 10.0596 4.58064 9.72846 4.58064L9.72795 4.58115L9.72812 4.58132ZM8.5279 6.52902C8.29898 6.52902 8.11237 6.72315 8.11237 6.96162C8.11237 7.20009 8.29881 7.39439 8.5279 7.39439C8.75699 7.39439 8.94344 7.20095 8.94344 6.96162C8.94344 6.72229 8.75699 6.52902 8.5279 6.52902ZM8.90949 3.38878C8.76433 3.07866 8.40423 2.9497 8.10657 3.10186L5.84277 4.25414H9.31582L8.90949 3.38878Z" fill="white"/>
</svg>
