<svg width="20" height="20" viewBox="0 0 20 20" fill="none" xmlns="http://www.w3.org/2000/svg">
<rect width="20" height="20" fill="#252F3D"/>
<path d="M3.53076 7.00143V13.1928C3.53076 13.5908 3.73925 13.9509 4.08672 14.1531L9.45044 17.2487C9.79159 17.4446 10.2149 17.4446 10.556 17.2487L15.9198 14.1531C16.2609 13.9572 16.4757 13.5908 16.4757 13.1928V7.00143C16.4757 6.60341 16.2672 6.2433 15.9198 6.04114L10.556 2.94547C10.2149 2.74962 9.79159 2.74962 9.45044 2.94547L4.08672 6.04114C3.74556 6.23699 3.53708 6.60341 3.53708 7.00143H3.53076Z" fill="#213147"/>
<path d="M11.1689 11.2973L10.4045 13.3948C10.3855 13.4517 10.3855 13.5148 10.4045 13.578L11.7186 17.1854L13.2411 16.3073L11.4153 11.2973C11.3711 11.1836 11.2131 11.1836 11.1689 11.2973Z" fill="#12AAFF"/>
<path d="M12.704 7.77206C12.6598 7.65834 12.5018 7.65834 12.4576 7.77206L11.6932 9.86953C11.6742 9.92639 11.6742 9.98957 11.6932 10.0527L13.8475 15.9598L15.3701 15.0816L12.704 7.77837V7.77206Z" fill="#12AAFF"/>
<path d="M10 3.17919C10.0379 3.17919 10.0758 3.19183 10.1074 3.21078L15.907 6.55916C15.9765 6.59706 16.0144 6.67288 16.0144 6.74869V13.4454C16.0144 13.5213 15.9702 13.5971 15.907 13.635L10.1074 16.9833C10.0758 17.0023 10.0379 17.0149 10 17.0149C9.96209 17.0149 9.92419 17.0023 9.8926 16.9833L4.09296 13.635C4.02347 13.5971 3.98556 13.5213 3.98556 13.4454V6.74237C3.98556 6.66656 4.02978 6.59075 4.09296 6.55284L9.8926 3.20446C9.92419 3.18551 9.96209 3.17288 10 3.17288V3.17919ZM10 2.19995C9.79152 2.19995 9.58935 2.25049 9.39982 2.35789L3.60018 5.70627C3.22744 5.92107 3 6.31277 3 6.74237V13.4391C3 13.8687 3.22744 14.2604 3.60018 14.4752L9.39982 17.8236C9.58303 17.931 9.79152 17.9815 10 17.9815C10.2085 17.9815 10.4106 17.931 10.6002 17.8236L16.3998 14.4752C16.7726 14.2604 17 13.8687 17 13.4391V6.74237C17 6.31277 16.7726 5.92107 16.3998 5.70627L10.5939 2.35789C10.4106 2.25049 10.2022 2.19995 9.99368 2.19995H10Z" fill="#9DCCED"/>
<path d="M6.15894 15.9662L6.69594 14.5005L7.76995 15.3913L6.76543 16.3137L6.15894 15.9662Z" fill="#213147"/>
<path d="M9.50729 6.26852H8.03527C7.92787 6.26852 7.82679 6.33802 7.78888 6.4391L4.63635 15.0817L6.15892 15.9599L9.63364 6.4391C9.66523 6.35065 9.60206 6.26221 9.51361 6.26221L9.50729 6.26852Z" fill="white"/>
<path d="M12.085 6.26852H10.613C10.5056 6.26852 10.4045 6.33802 10.3666 6.4391L6.7655 16.3073L8.28807 17.1855L12.205 6.4391C12.2366 6.35065 12.1734 6.26221 12.085 6.26221V6.26852Z" fill="white"/>
</svg>
