<svg width="20" height="20" viewBox="0 0 20 20" fill="none" xmlns="http://www.w3.org/2000/svg">
<g clip-path="url(#clip0_7_28)">
<rect x="-17" y="-34" width="72" height="72" fill="#F0B90B"/>
<path d="M5.49599 10L5.50321 12.6443L7.75 13.9664V15.5145L4.1883 13.4255V9.22681L5.49599 10ZM5.49599 7.35582V8.89668L4.1875 8.12264V6.58178L5.49599 5.80774L6.8109 6.58178L5.49599 7.35582ZM8.6883 6.58178L9.99679 5.80774L11.3117 6.58178L9.99679 7.35582L8.6883 6.58178Z" fill="white"/>
<path d="M6.44153 12.0962V10.5481L7.75002 11.3222V12.863L6.44153 12.0962ZM8.68832 14.5209L9.99682 15.2949L11.3117 14.5209V16.0617L9.99682 16.8358L8.68832 16.0617V14.5209ZM13.1883 6.58178L14.4968 5.80774L15.8117 6.58178V8.12264L14.4968 8.89668V7.35582L13.1883 6.58178ZM14.4968 12.6443L14.504 10L15.8125 9.22601V13.4247L12.2508 15.5137V13.9656L14.4968 12.6443Z" fill="white"/>
<path d="M13.5585 12.0962L12.25 12.863V11.3221L13.5585 10.5481V12.0962Z" fill="white"/>
<path d="M13.5585 7.90389L13.5657 9.45197L11.3125 10.7741V13.4247L10.004 14.1916L8.69553 13.4247V10.7741L6.44233 9.45197V7.90389L7.75643 7.12985L9.99602 8.45838L12.2492 7.12985L13.5641 7.90389H13.5585ZM6.44153 5.26046L9.99682 3.16431L13.5585 5.26046L12.25 6.0345L9.99682 4.70597L7.75002 6.0345L6.44153 5.26046Z" fill="white"/>
</g>
<defs>
<clipPath id="clip0_7_28">
<rect width="20" height="20" fill="white"/>
</clipPath>
</defs>
</svg>
