<svg width="59" height="12" viewBox="0 0 59 12" fill="none" xmlns="http://www.w3.org/2000/svg">
<g clip-path="url(#clip0_4636_76875)">
<path d="M19.8374 6.77115H22.5752V6.99401C22.5752 7.50144 22.5162 7.94944 22.3993 8.3403C22.2847 8.70144 22.0918 9.03973 21.8207 9.35401C21.2057 10.0592 20.424 10.4112 19.4743 10.4112C18.5246 10.4112 17.7542 10.0706 17.0927 9.3883C16.4324 8.70373 16.1011 7.88201 16.1011 6.92315C16.1011 5.9643 16.4369 5.11401 17.1097 4.43173C17.7814 3.74715 18.5995 3.4043 19.5639 3.4043C20.0813 3.4043 20.5647 3.51173 21.014 3.72773C21.4428 3.94373 21.8649 4.29344 22.2802 4.77687L21.5676 5.47173C21.0242 4.73458 20.3616 4.36658 19.5809 4.36658C18.8797 4.36658 18.292 4.6123 17.8177 5.10487C17.3435 5.5883 17.1052 6.19401 17.1052 6.92315C17.1052 7.6523 17.3696 8.29344 17.8994 8.7803C18.3941 9.23173 18.9308 9.45801 19.5083 9.45801C20.0007 9.45801 20.4421 9.28887 20.8336 8.95058C21.225 8.61001 21.444 8.20201 21.4905 7.72658H19.8385V6.77001L19.8374 6.77115Z" fill="#33343A"/>
<path d="M24.3543 6.87973C24.3543 5.93001 24.6958 5.11401 25.38 4.43287C26.0607 3.75058 26.8788 3.41001 27.8341 3.41001C28.7895 3.41001 29.5871 3.75401 30.2622 4.44087C30.9396 5.12887 31.2788 5.95401 31.2788 6.91858C31.2788 7.88315 30.9384 8.71173 30.2577 9.3883C29.5735 10.0672 28.7486 10.4066 27.7819 10.4066C26.9264 10.4066 26.1583 10.1049 25.4775 9.50144C24.7287 8.83401 24.3531 7.95973 24.3531 6.87973H24.3543ZM25.3629 6.89344C25.3629 7.63973 25.6091 8.2523 26.1004 8.73344C26.5895 9.21458 27.1545 9.45458 27.7956 9.45458C28.4911 9.45458 29.0765 9.21001 29.5542 8.72087C30.0319 8.22601 30.2702 7.62258 30.2702 6.91173C30.2702 6.20087 30.0341 5.58944 29.5621 5.10258C29.0936 4.61344 28.5126 4.36887 27.8205 4.36887C27.1284 4.36887 26.5486 4.61344 26.0743 5.10258C25.6001 5.58601 25.3618 6.18373 25.3618 6.89458L25.3629 6.89344Z" fill="#33343A"/>
<path d="M33.017 3.56143V10.3031H34.0994V7.71572H35.7367C37.3467 7.71572 38.1512 7.01743 38.1512 5.62886C38.1512 4.24029 37.3467 3.56143 35.7548 3.56143H33.017ZM34.0994 4.50543H35.672C36.144 4.50543 36.4957 4.59 36.717 4.76943C36.9394 4.93972 37.0597 5.22315 37.0597 5.62886C37.0597 6.03457 36.9485 6.32715 36.7261 6.50657C36.5037 6.67686 36.152 6.77057 35.672 6.77057H34.0994V4.50429V4.50543Z" fill="#33343A"/>
<path d="M39.9302 3.56143V10.3031H44.5742V9.35915H41.0024V3.56143H39.9302Z" fill="#33343A"/>
<path d="M46.2591 3.56143V7.74429C46.2591 8.622 46.4997 9.29286 46.9898 9.76486C47.4527 10.2083 48.1278 10.4357 49.006 10.4357C49.8842 10.4357 50.5514 10.2094 51.0324 9.75572C51.5135 9.29286 51.7541 8.62314 51.7541 7.74429V3.56143H50.6716V7.76257C50.6716 8.34772 50.5332 8.77286 50.2734 9.05629C50.0056 9.33057 49.579 9.47114 49.006 9.47114C48.433 9.47114 47.9973 9.32943 47.7387 9.05629C47.4709 8.77286 47.3404 8.34772 47.3404 7.76257V3.56143H46.258H46.2591Z" fill="#33343A"/>
<path d="M56.2335 3.42886C55.521 3.42886 54.9389 3.58886 54.476 3.92029C53.9768 4.25972 53.7362 4.73172 53.7362 5.32715C53.7362 5.92257 53.9858 6.37515 54.4953 6.68715C54.6893 6.80029 55.1987 6.98886 56.0123 7.254C56.743 7.48029 57.1684 7.63114 57.2978 7.69743C57.7051 7.90543 57.9173 8.18886 57.9173 8.54772C57.9173 8.83115 57.7698 9.04829 57.4918 9.21857C57.2138 9.37857 56.8258 9.46429 56.3447 9.46429C55.799 9.46429 55.4007 9.36029 55.142 9.17172C54.855 8.95457 54.6791 8.58657 54.6053 8.07686H53.532C53.5785 8.93629 53.8837 9.55915 54.4386 9.95572C54.8924 10.2769 55.5301 10.4369 56.3447 10.4369C57.1594 10.4369 57.8435 10.2574 58.3065 9.918C58.7694 9.56829 59.0008 9.08714 59.0008 8.48257C59.0008 7.878 58.7138 7.37743 58.1408 7.02886C57.8821 6.878 57.308 6.65172 56.4105 6.36829C55.8001 6.17057 55.4211 6.02886 55.2816 5.95343C54.9673 5.78314 54.8187 5.54772 54.8187 5.26429C54.8187 4.94315 54.948 4.70772 55.226 4.566C55.4484 4.44372 55.7627 4.38657 56.1791 4.38657C56.6601 4.38657 57.03 4.47115 57.2706 4.66086C57.5111 4.84029 57.687 5.142 57.7789 5.558H58.8522C58.7875 4.822 58.5186 4.27343 58.0568 3.92486C57.6223 3.59457 57.0119 3.43343 56.2347 3.43343L56.2335 3.42886Z" fill="#33343A"/>
<path d="M8.38935 2.92457H5.15683C3.14515 2.92457 1.51358 4.60686 1.51358 6.68114C1.51358 8.75543 3.14515 10.4377 5.15683 10.4377H7.53044C7.93437 10.4377 8.26113 10.1006 8.26113 9.68343C8.26113 9.26629 7.93323 8.92914 7.53044 8.92914H5.43935C4.10844 8.92914 3.02715 7.92914 3.02715 6.68686C3.02715 5.44457 4.10731 4.42857 5.43935 4.42857L7.0766 4.43429C7.0766 4.43429 7.0766 4.432 7.0766 4.43086H9.10756C9.10756 5.30743 8.35644 6.01943 7.4306 6.01943C7.39996 6.01943 7.37046 6.01943 7.3421 6.01714V6.01943H5.1954C4.8346 6.01943 4.54073 6.32114 4.54073 6.69371C4.54073 7.06629 4.83346 7.368 5.1954 7.368H7.53044C8.77058 7.368 9.77585 8.40457 9.77585 9.68343C9.77585 10.9623 8.77058 11.9989 7.53044 11.9989H5.15683C2.30894 12 0 9.61943 0 6.68229C0 3.74514 2.30894 1.36343 5.15683 1.36343H9.87796C9.87796 2.21714 9.21421 2.90971 8.38935 2.92343M13.9966 2.15086H13.0957V3.12114C13.0957 3.20457 13.0277 3.272 12.9437 3.272H12.1302C12.0462 3.272 11.9781 3.20457 11.9781 3.12114V2.15086H11.0999C11.016 2.15086 10.9479 2.08343 10.9479 2V1.26971C10.9479 1.18629 11.016 1.11886 11.0999 1.11886H11.9781V0.150857C11.9781 0.0674286 12.0462 0 12.1302 0H12.9437C13.0277 0 13.0957 0.0674286 13.0957 0.150857V1.11886H13.9966C14.0806 1.11886 14.1487 1.18629 14.1487 1.26971V2C14.1487 2.08343 14.0806 2.15086 13.9966 2.15086Z" fill="#33343A"/>
</g>
<defs>
<clipPath id="clip0_4636_76875">
<rect width="59" height="12" fill="white"/>
</clipPath>
</defs>
</svg>
