<svg width="40" height="40" viewBox="0 0 40 40" fill="none" xmlns="http://www.w3.org/2000/svg">
<g clip-path="url(#clip0_2344_30935)">
<path d="M40 0H0V40H40V0Z" fill="#0052FF"/>
<path fill-rule="evenodd" clip-rule="evenodd" d="M8.3312 0H31.6672C36.2704 0 40 4.0128 40 8.9632V31.0368C40 35.9872 36.2704 40 31.6688 40H8.3312C3.7296 40 0 35.9872 0 31.0368V8.9632C0 4.0128 3.7296 0 8.3312 0Z" fill="#0052FF"/>
<path fill-rule="evenodd" clip-rule="evenodd" d="M19.9988 5.79492C27.8452 5.79492 34.2052 12.1549 34.2052 20.0013C34.2052 27.8477 27.8452 34.2077 19.9988 34.2077C12.1524 34.2077 5.79248 27.8477 5.79248 20.0013C5.79248 12.1549 12.1524 5.79492 19.9988 5.79492Z" fill="white"/>
<path fill-rule="evenodd" clip-rule="evenodd" d="M16.5006 15.459H23.4974C24.0734 15.459 24.539 15.9614 24.539 16.579V23.419C24.539 24.0382 24.0718 24.539 23.4974 24.539H16.5006C15.9246 24.539 15.459 24.0366 15.459 23.419V16.579C15.459 15.9614 15.9262 15.459 16.5006 15.459Z" fill="#0052FF"/>
</g>
<defs>
<clipPath id="clip0_2344_30935">
<rect width="40" height="40" rx="8" fill="white"/>
</clipPath>
</defs>
</svg>
