<svg width="40" height="40" viewBox="0 0 40 40" fill="none" xmlns="http://www.w3.org/2000/svg">
<path d="M34.4131 4.45703L21.9209 13.7351L24.231 8.26117L34.4131 4.45703Z" fill="#E2761B" stroke="#E2761B" stroke-width="0.150659" stroke-linecap="round" stroke-linejoin="round"/>
<path d="M5.57471 4.45703L17.9664 13.823L15.7693 8.26117L5.57471 4.45703Z" fill="#E4761B" stroke="#E4761B" stroke-width="0.150659" stroke-linecap="round" stroke-linejoin="round"/>
<path d="M29.9189 25.9648L26.5918 31.0621L33.7104 33.0207L35.7569 26.0778L29.9189 25.9648Z" fill="#E4761B" stroke="#E4761B" stroke-width="0.150659" stroke-linecap="round" stroke-linejoin="round"/>
<path d="M4.25635 26.0778L6.29025 33.0207L13.4089 31.0621L10.0818 25.9648L4.25635 26.0778Z" fill="#E4761B" stroke="#E4761B" stroke-width="0.150659" stroke-linecap="round" stroke-linejoin="round"/>
<path d="M13.0071 17.3515L11.0234 20.3522L18.0919 20.666L17.8408 13.0703L13.0071 17.3515Z" fill="#E4761B" stroke="#E4761B" stroke-width="0.150659" stroke-linecap="round" stroke-linejoin="round"/>
<path d="M26.9805 17.3515L22.0841 12.9824L21.9209 20.666L28.9768 20.3522L26.9805 17.3515Z" fill="#E4761B" stroke="#E4761B" stroke-width="0.150659" stroke-linecap="round" stroke-linejoin="round"/>
<path d="M13.4087 31.061L17.6523 28.9895L13.9862 26.127L13.4087 31.061Z" fill="#E4761B" stroke="#E4761B" stroke-width="0.150659" stroke-linecap="round" stroke-linejoin="round"/>
<path d="M22.3354 28.9895L26.5916 31.061L26.0015 26.127L22.3354 28.9895Z" fill="#E4761B" stroke="#E4761B" stroke-width="0.150659" stroke-linecap="round" stroke-linejoin="round"/>
<path d="M26.5916 31.0598L22.3354 28.9883L22.6744 31.7629L22.6368 32.9305L26.5916 31.0598Z" fill="#D7C1B3" stroke="#D7C1B3" stroke-width="0.150659" stroke-linecap="round" stroke-linejoin="round"/>
<path d="M13.4087 31.0598L17.3635 32.9305L17.3384 31.7629L17.6523 28.9883L13.4087 31.0598Z" fill="#D7C1B3" stroke="#D7C1B3" stroke-width="0.150659" stroke-linecap="round" stroke-linejoin="round"/>
<path d="M17.4262 24.2939L13.8857 23.2519L16.3842 22.1094L17.4262 24.2939Z" fill="#233447" stroke="#233447" stroke-width="0.150659" stroke-linecap="round" stroke-linejoin="round"/>
<path d="M22.561 24.2939L23.6031 22.1094L26.1141 23.2519L22.561 24.2939Z" fill="#233447" stroke="#233447" stroke-width="0.150659" stroke-linecap="round" stroke-linejoin="round"/>
<path d="M13.4086 31.0602L14.0112 25.9629L10.0815 26.0759L13.4086 31.0602Z" fill="#CD6116" stroke="#CD6116" stroke-width="0.150659" stroke-linecap="round" stroke-linejoin="round"/>
<path d="M25.9888 25.9629L26.5914 31.0602L29.9185 26.0759L25.9888 25.9629Z" fill="#CD6116" stroke="#CD6116" stroke-width="0.150659" stroke-linecap="round" stroke-linejoin="round"/>
<path d="M28.9768 20.3516L21.9209 20.6654L22.5738 24.2938L23.6158 22.1093L26.1268 23.2517L28.9768 20.3516Z" fill="#CD6116" stroke="#CD6116" stroke-width="0.150659" stroke-linecap="round" stroke-linejoin="round"/>
<path d="M13.886 23.2517L16.3969 22.1093L17.4265 24.2938L18.0919 20.6654L11.0234 20.3516L13.886 23.2517Z" fill="#CD6116" stroke="#CD6116" stroke-width="0.150659" stroke-linecap="round" stroke-linejoin="round"/>
<path d="M11.0229 20.3516L13.9859 26.1268L13.8855 23.2517L11.0229 20.3516Z" fill="#E4751F" stroke="#E4751F" stroke-width="0.150659" stroke-linecap="round" stroke-linejoin="round"/>
<path d="M26.1265 23.2517L26.001 26.1268L28.9765 20.3516L26.1265 23.2517Z" fill="#E4751F" stroke="#E4751F" stroke-width="0.150659" stroke-linecap="round" stroke-linejoin="round"/>
<path d="M18.0912 20.6641L17.4258 24.2924L18.2544 28.5737L18.4427 22.9365L18.0912 20.6641Z" fill="#E4751F" stroke="#E4751F" stroke-width="0.150659" stroke-linecap="round" stroke-linejoin="round"/>
<path d="M21.9205 20.6641L21.5815 22.9239L21.7322 28.5737L22.5734 24.2924L21.9205 20.6641Z" fill="#E4751F" stroke="#E4751F" stroke-width="0.150659" stroke-linecap="round" stroke-linejoin="round"/>
<path d="M22.5736 24.294L21.7324 28.5752L22.3351 28.9896L26.0011 26.127L26.1266 23.252L22.5736 24.294Z" fill="#F6851B" stroke="#F6851B" stroke-width="0.150659" stroke-linecap="round" stroke-linejoin="round"/>
<path d="M13.8857 23.252L13.9862 26.127L17.6522 28.9896L18.2549 28.5752L17.4262 24.294L13.8857 23.252Z" fill="#F6851B" stroke="#F6851B" stroke-width="0.150659" stroke-linecap="round" stroke-linejoin="round"/>
<path d="M22.6366 32.9312L22.6742 31.7636L22.3604 31.4874H17.6271L17.3384 31.7636L17.3635 32.9312L13.4087 31.0605L14.7897 32.1905L17.5895 34.1365H22.398L25.2103 32.1905L26.5914 31.0605L22.6366 32.9312Z" fill="#C0AD9E" stroke="#C0AD9E" stroke-width="0.150659" stroke-linecap="round" stroke-linejoin="round"/>
<path d="M22.3352 28.9905L21.7326 28.5762H18.2549L17.6523 28.9905L17.3384 31.7651L17.6271 31.4889H22.3604L22.6742 31.7651L22.3352 28.9905Z" fill="#161616" stroke="#161616" stroke-width="0.150659" stroke-linecap="round" stroke-linejoin="round"/>
<path d="M34.9406 14.3378L36.0078 9.21535L34.4133 4.45703L22.3354 13.4213L26.9808 17.3509L33.547 19.2718L35.0034 17.5769L34.3756 17.125L35.38 16.2084L34.6016 15.6058L35.606 14.84L34.9406 14.3378Z" fill="#763D16" stroke="#763D16" stroke-width="0.150659" stroke-linecap="round" stroke-linejoin="round"/>
<path d="M3.99268 9.21535L5.05984 14.3378L4.38188 14.84L5.38627 15.6058L4.62042 16.2084L5.62482 17.125L4.99707 17.5769L6.44089 19.2718L13.0071 17.3509L17.6524 13.4213L5.5746 4.45703L3.99268 9.21535Z" fill="#763D16" stroke="#763D16" stroke-width="0.150659" stroke-linecap="round" stroke-linejoin="round"/>
<path d="M33.5465 19.2705L26.9803 17.3496L28.9765 20.3502L26.001 26.1255L29.9181 26.0753H35.7562L33.5465 19.2705Z" fill="#F6851B" stroke="#F6851B" stroke-width="0.150659" stroke-linecap="round" stroke-linejoin="round"/>
<path d="M13.0071 17.3496L6.4409 19.2705L4.25635 26.0753H10.0818L13.9864 26.1255L11.0235 20.3502L13.0071 17.3496Z" fill="#F6851B" stroke="#F6851B" stroke-width="0.150659" stroke-linecap="round" stroke-linejoin="round"/>
<path d="M21.921 20.666L22.3353 13.4218L24.2436 8.26172H15.769L17.6523 13.4218L18.0917 20.666L18.2424 22.951L18.2549 28.5756H21.7326L21.7577 22.951L21.921 20.666Z" fill="#F6851B" stroke="#F6851B" stroke-width="0.150659" stroke-linecap="round" stroke-linejoin="round"/>
</svg>
