<svg width="40" height="40" viewBox="0 0 40 40" fill="none" xmlns="http://www.w3.org/2000/svg">
<g clip-path="url(#clip0_947_105002)">
<path d="M29.2 0H10.8C4.83532 0 0 4.83532 0 10.8V29.2C0 35.1647 4.83532 40 10.8 40H29.2C35.1647 40 40 35.1647 40 29.2V10.8C40 4.83532 35.1647 0 29.2 0Z" fill="#AB9FF2"/>
<path fill-rule="evenodd" clip-rule="evenodd" d="M17.1558 25.9415C15.5429 28.335 12.8402 31.364 9.244 31.364C7.54395 31.364 5.90923 30.6864 5.90918 27.7423C5.90904 20.2441 16.4799 8.63686 26.288 8.63672C31.8675 8.63663 34.091 12.3855 34.091 16.6429C34.091 22.1075 30.4293 28.356 26.7895 28.356C25.6344 28.356 25.0677 27.7417 25.0677 26.7676C25.0677 26.5134 25.1111 26.238 25.1985 25.9415C23.956 27.9959 21.5585 29.9026 19.3135 29.9026C17.6789 29.9026 16.8507 28.9069 16.8507 27.5089C16.8507 27.0005 16.9596 26.4711 17.1558 25.9415ZM24.4358 14.4019C23.548 14.4034 22.9427 15.1339 22.9446 16.176C22.9465 17.2181 23.5545 17.9673 24.4423 17.9659C25.3087 17.9644 25.9137 17.213 25.9118 16.1709C25.9099 15.1289 25.3022 14.4004 24.4358 14.4019ZM29.1452 14.3969C28.2574 14.3985 27.6521 15.1289 27.654 16.171C27.656 17.2131 28.2636 17.9624 29.1517 17.9609C30.0181 17.9594 30.6231 17.208 30.6212 16.1659C30.6193 15.1239 30.0116 14.3955 29.1452 14.3969Z" fill="white"/>
</g>
<defs>
<clipPath id="clip0_947_105002">
<rect width="40" height="40" fill="white"/>
</clipPath>
</defs>
</svg>
