<svg width="16" height="14" viewBox="0 0 16 14" fill="none" xmlns="http://www.w3.org/2000/svg">
<path d="M8.75977 -0.00195312C9.31463 -0.00186172 9.81336 0.180481 10.2559 0.544922C10.8719 1.05177 11.1805 1.79971 11.1816 2.78809H12.9414C13.4954 2.78811 13.9681 2.99623 14.3594 3.41113C14.7505 3.82641 14.9462 4.32722 14.9463 4.91406V5.82422C14.9768 5.83744 15.0062 5.85306 15.0342 5.87207C15.0644 5.89184 15.0923 5.91537 15.1182 5.94141C15.1446 5.96718 15.1682 5.99601 15.1885 6.02637C15.2083 6.05713 15.2261 6.08923 15.2402 6.12305C15.2542 6.15687 15.2648 6.19175 15.2725 6.22754C15.2794 6.26369 15.2822 6.30011 15.2822 6.33691V10.4375C15.2822 10.474 15.2794 10.5104 15.2725 10.5459C15.265 10.5822 15.2542 10.6177 15.2402 10.6514C15.2263 10.6851 15.2084 10.7173 15.1875 10.748C15.1677 10.7783 15.1445 10.8061 15.1182 10.832C15.0924 10.8584 15.0645 10.882 15.0342 10.9023C15.0062 10.9204 14.9768 10.9357 14.9463 10.9492V11.8721C14.9463 12.4596 14.7507 12.9605 14.3594 13.375C13.9677 13.7903 13.495 13.998 12.9414 13.998H2.00488C1.45088 13.998 0.978187 13.7903 0.586914 13.375C0.195625 12.9601 1.44302e-05 12.4593 0 11.8721V4.91406C5.33727e-05 4.32679 0.195832 3.82595 0.586914 3.41113C0.759678 3.22814 0.949065 3.08666 1.15332 2.98438C1.14353 2.95753 1.13375 2.93042 1.12793 2.90234C1.121 2.86624 1.11719 2.82951 1.11719 2.79297C1.11719 2.78318 1.11759 2.77338 1.11816 2.76367V2.16016C1.11816 1.66426 1.26775 1.21817 1.56641 0.822266C1.98025 0.273027 2.5762 -0.00190394 3.35449 -0.00195312H8.75977ZM2.00488 3.94824C1.75312 3.94828 1.53824 4.04282 1.36035 4.23145C1.18265 4.42 1.0938 4.64749 1.09375 4.91406V11.8721C1.09376 12.1391 1.18244 12.367 1.36035 12.5557C1.53823 12.7443 1.75314 12.8388 2.00488 12.8389H12.9414C13.193 12.8388 13.408 12.7443 13.5859 12.5557C13.7638 12.367 13.8525 12.1391 13.8525 11.8721V10.9961H8.01367C7.97707 10.9961 7.941 10.9923 7.90527 10.9854C7.86904 10.9779 7.83342 10.9681 7.7998 10.9541C7.76598 10.9401 7.7339 10.9223 7.70312 10.9014C7.67277 10.8815 7.64415 10.8585 7.61816 10.832C7.59194 10.8064 7.56902 10.7782 7.54883 10.748C7.52895 10.7173 7.51149 10.6842 7.49707 10.6504C7.48315 10.6166 7.47225 10.5816 7.46484 10.5459C7.45792 10.5098 7.45508 10.473 7.45508 10.4365V6.33691C7.45509 6.30037 7.4579 6.26419 7.46484 6.22852C7.47227 6.19226 7.48331 6.15668 7.49707 6.12305C7.51104 6.08924 7.52886 6.05713 7.5498 6.02637C7.56965 5.99608 7.59277 5.96811 7.61914 5.94238C7.64488 5.91621 7.67281 5.89258 7.70312 5.87207C7.73384 5.85225 7.76605 5.8347 7.7998 5.82031C7.8336 5.80636 7.86854 5.79573 7.9043 5.78809C7.9404 5.78113 7.97714 5.77737 8.01367 5.77734H13.8525V4.91406C13.8525 4.64752 13.7636 4.41999 13.5859 4.23145C13.408 4.0428 13.193 3.94826 12.9414 3.94824H2.00488ZM8.57324 9.87793H13.8525V6.89648H8.57324V9.87793ZM11.1826 7.82812C11.4912 7.82828 11.7411 8.07811 11.7412 8.38672C11.7412 8.69545 11.4911 8.94613 11.1826 8.94629C10.874 8.94629 10.623 8.69554 10.623 8.38672C10.6232 8.07802 10.8739 7.82812 11.1826 7.82812ZM3.35449 1.11621C2.94739 1.11621 2.649 1.24232 2.45898 1.49414C2.3105 1.69134 2.23535 1.91306 2.23535 2.15918V2.78809H10.0635C10.0625 2.15179 9.88926 1.69123 9.54492 1.40723C9.30851 1.21311 9.04624 1.11621 8.75879 1.11621H3.35449Z" fill="#9397A3"/>
</svg>
